<?xml version="1.0" encoding="UTF-8"?> <svg xmlns="http://www.w3.org/2000/svg" viewBox="0 0 606.41983 100.23606"> <defs> <style>.cls-1{fill:#ccc;}.cls-2{fill:#ffac27;}</style> </defs> <g id="Layer_2" data-name="Layer 2"> <g id="Layer_1-2" data-name="Layer 1"> <path class="cls-1" d="M165.73428,41.60886v-28H189.8544v28h-3.9209V16.04929l.96,1.04H168.69424l1-1.04V41.60886Z"></path> <path class="cls-1" d="M203.60538,41.84909a10.01544,10.01544,0,0,1-4.13965-.7998,6.34394,6.34394,0,0,1-2.74024-2.2207,5.61635,5.61635,0,0,1-.96-3.21973,6.05854,6.05854,0,0,1,.82031-3.12012,5.68039,5.68039,0,0,1,2.67969-2.24023,12.40422,12.40422,0,0,1,5.02051-.83985h6.71973v2.75977h-6.56055q-2.87988,0-3.87988.96a3.09957,3.09957,0,0,0-1,2.32031,2.98,2.98,0,0,0,1.24023,2.5,5.57864,5.57864,0,0,0,3.44043.94043,7.27764,7.27764,0,0,0,3.7793-.96,5.45913,5.45913,0,0,0,2.33984-2.80078l.76074,2.64063a5.9663,5.9663,0,0,1-2.68066,2.97949A9.6167,9.6167,0,0,1,203.60538,41.84909Zm6.96-.24023V37.12839l-.2002-.83984V28.6489a4.94956,4.94956,0,0,0-1.41992-3.78027,6.00378,6.00378,0,0,0-4.25977-1.33985,11.22819,11.22819,0,0,0-3.67968.62012,9.48669,9.48669,0,0,0-3.04,1.66016l-1.60059-2.87989a11.59032,11.59032,0,0,1,3.94043-2.02051,16.48969,16.48969,0,0,1,4.82031-.70019q4.35938,0,6.71973,2.12012,2.35986,2.12109,2.36035,6.48047v12.7998Z"></path> <path class="cls-1" d="M230.45791,41.84909a11.77179,11.77179,0,0,1-5.78027-1.40039,10.29234,10.29234,0,0,1-3.97949-3.83984,10.807,10.807,0,0,1-1.44043-5.59961,10.81306,10.81306,0,0,1,1.44043-5.60059,10.15985,10.15985,0,0,1,3.97949-3.81933,11.90189,11.90189,0,0,1,5.78027-1.38086,11.25843,11.25843,0,0,1,5.13965,1.14062,8.07559,8.07559,0,0,1,3.5,3.37989l-2.91992,1.87988a6.51191,6.51191,0,0,0-2.54-2.2998,7.18164,7.18164,0,0,0-3.21972-.74024,7.46928,7.46928,0,0,0-3.71973.91992,6.8164,6.8164,0,0,0-2.60059,2.58008,7.73963,7.73963,0,0,0-.96,3.94043,7.85213,7.85213,0,0,0,.96,3.96,6.76656,6.76656,0,0,0,2.60059,2.59961,7.459,7.459,0,0,0,3.71973.91992,7.16879,7.16879,0,0,0,3.21972-.74023,6.512,6.512,0,0,0,2.54-2.29981l2.91992,1.83985a8.3794,8.3794,0,0,1-3.5,3.37988A10.93419,10.93419,0,0,1,230.45791,41.84909Z"></path> <path class="cls-1" d="M243.97354,41.60886V20.40866h19.64062v21.2002h-3.84082V22.80906l.9209.96H246.89346l.91992-.96v18.7998Z"></path> <path class="cls-1" d="M280.13272,41.84909A11.34791,11.34791,0,0,1,274.453,40.4487a10.36461,10.36461,0,0,1-3.91992-3.85937,10.84067,10.84067,0,0,1-1.44043-5.58008,10.81306,10.81306,0,0,1,1.44043-5.60059,10.26833,10.26833,0,0,1,3.91992-3.81933,12.331,12.331,0,0,1,11.33985,0,10.13387,10.13387,0,0,1,3.91992,3.7998,10.90176,10.90176,0,0,1,1.41992,5.62012,10.9287,10.9287,0,0,1-1.41992,5.59961,10.22749,10.22749,0,0,1-3.91992,3.83984A11.38288,11.38288,0,0,1,280.13272,41.84909Zm0-3.36035a7.27,7.27,0,0,0,3.66016-.91992,6.49464,6.49464,0,0,0,2.54-2.62012,8.14756,8.14756,0,0,0,.91993-3.93945,8.00554,8.00554,0,0,0-.91993-3.94043,6.57233,6.57233,0,0,0-2.54-2.58008,7.28008,7.28008,0,0,0-3.66016-.91992,7.16985,7.16985,0,0,0-3.63965.91992,6.90131,6.90131,0,0,0-2.56055,2.58008,7.73973,7.73973,0,0,0-.96,3.94043,7.87637,7.87637,0,0,0,.96,3.93945,6.8112,6.8112,0,0,0,2.56055,2.62012A7.16,7.16,0,0,0,280.13272,38.48874Z"></path> <path class="cls-1" d="M296.62784,49.36863v-28.96h3.68066v5.71973l-.24023,4.9209.39941,4.91992V49.36863Zm11.24023-7.51954a9.69043,9.69043,0,0,1-4.82031-1.2207,8.85074,8.85074,0,0,1-3.47949-3.61914,12.48418,12.48418,0,0,1-1.29981-6,12.81683,12.81683,0,0,1,1.25977-6,8.47538,8.47538,0,0,1,3.43945-3.60059,9.993,9.993,0,0,1,4.90039-1.20019,11.0087,11.0087,0,0,1,5.52051,1.36035,10.05154,10.05154,0,0,1,3.7998,3.78027,11.10957,11.10957,0,0,1,1.39942,5.66016,11.21883,11.21883,0,0,1-1.39942,5.67969,10.00007,10.00007,0,0,1-3.7998,3.7998A10.99856,10.99856,0,0,1,307.86807,41.84909Zm-.32031-3.36035a7.27,7.27,0,0,0,3.66015-.91992,6.632,6.632,0,0,0,2.56055-2.62012,8.01384,8.01384,0,0,0,.93945-3.93945,7.87444,7.87444,0,0,0-.93945-3.94043,6.71528,6.71528,0,0,0-2.56055-2.58008,7.28,7.28,0,0,0-3.66015-.91992,7.20251,7.20251,0,0,0-3.62012.91992,6.7129,6.7129,0,0,0-2.55957,2.58008,7.86454,7.86454,0,0,0-.94043,3.94043,8.00368,8.00368,0,0,0,.94043,3.93945,6.62973,6.62973,0,0,0,2.55957,2.62012A7.19247,7.19247,0,0,0,307.54776,38.48874Z"></path> <path class="cls-1" d="M328.46768,41.60886V22.769l.96,1h-8.71973V20.40866h19.35938V23.769H331.3876l.91992-1V41.60886Z"></path> <path class="cls-1" d="M342.4794,41.84909a2.69861,2.69861,0,0,1-2.71973-2.75976,2.58559,2.58559,0,0,1,.79981-1.96094,2.69276,2.69276,0,0,1,1.91992-.75976,2.57473,2.57473,0,0,1,1.86035.75976,2.61732,2.61732,0,0,1,.78027,1.96094,2.67933,2.67933,0,0,1-.78027,1.97949A2.53648,2.53648,0,0,1,342.4794,41.84909Z"></path> <path class="cls-1" d="M165.73428,87.60886v-28h3.96V84.12839h15.59961V59.60886h3.96v28Zm24.12012,6.36035V86.56882l.96,1.04h-5.52051V84.12839h8.28028v9.84082Z"></path> <path class="cls-1" d="M198.0419,87.60886V66.40866h3.83984V81.84909l13-15.44043h3.48047v21.2002h-3.83984V72.16843l-12.96,15.44043Z"></path> <path class="cls-1" d="M238.44131,87.92917h-.91992q-6.52149-.08056-10.12012-2.90039a9.63463,9.63463,0,0,1-3.60058-8.05957,9.45919,9.45919,0,0,1,3.62011-7.98047q3.61963-2.77881,10.21973-2.82031h.84082q6.6797,0,10.37988,2.80078a9.43521,9.43521,0,0,1,3.7002,8,9.60761,9.60761,0,0,1-3.7207,8.12012Q245.12148,87.92966,238.44131,87.92917Zm-.08008-3.36035a16.31306,16.31306,0,0,0,5.7793-.87988,6.636,6.636,0,0,0,4.62012-6.71973,6.88924,6.88924,0,0,0-1.16016-4.08008,7.04143,7.04143,0,0,0-3.46-2.48047,17.03947,17.03947,0,0,0-5.7793-.83984h-.60058a16.054,16.054,0,0,0-5.66016.86035,6.91384,6.91384,0,0,0-3.37988,2.5,7.00014,7.00014,0,0,0-1.12012,4.04,7.16881,7.16881,0,0,0,1.14063,4.12012,7.04406,7.04406,0,0,0,3.39941,2.55957,16.11557,16.11557,0,0,0,5.62012.91992h.60058Zm-2.08007,10.79981V57.92917h3.75976V95.36863Z"></path> <path class="cls-1" d="M257.36807,95.36863v-28.96h3.68066v5.71973l-.24023,4.9209.39941,4.91992V95.36863Zm11.24023-7.51954a9.69048,9.69048,0,0,1-4.82031-1.2207,8.8508,8.8508,0,0,1-3.47949-3.61914,12.48418,12.48418,0,0,1-1.2998-6,12.817,12.817,0,0,1,1.25976-6,8.47544,8.47544,0,0,1,3.43945-3.60059,9.99308,9.99308,0,0,1,4.90039-1.20019,11.00868,11.00868,0,0,1,5.52051,1.36035,10.05163,10.05163,0,0,1,3.79981,3.78027,12.186,12.186,0,0,1,0,11.33985,10.00017,10.00017,0,0,1-3.79981,3.7998A10.99853,10.99853,0,0,1,268.6083,87.84909Zm-.32031-3.36035a7.27,7.27,0,0,0,3.66016-.91992,6.63206,6.63206,0,0,0,2.56055-2.62012,8.014,8.014,0,0,0,.93945-3.93945,7.87454,7.87454,0,0,0-.93945-3.94043,6.71535,6.71535,0,0,0-2.56055-2.58008,7.28008,7.28008,0,0,0-3.66016-.91992,7.20244,7.20244,0,0,0-3.62011.91992,6.71286,6.71286,0,0,0-2.55958,2.58008,7.86454,7.86454,0,0,0-.94042,3.94043,8.00368,8.00368,0,0,0,.94042,3.93945,6.62968,6.62968,0,0,0,2.55958,2.62012A7.19241,7.19241,0,0,0,268.288,84.48874Z"></path> <path class="cls-1" d="M294.29971,87.84909A11.34791,11.34791,0,0,1,288.62,86.4487a10.36468,10.36468,0,0,1-3.91992-3.85937,11.56828,11.56828,0,0,1,0-11.18067A10.2684,10.2684,0,0,1,288.62,67.58933a12.331,12.331,0,0,1,11.33985,0,10.13387,10.13387,0,0,1,3.91992,3.7998,11.79174,11.79174,0,0,1,0,11.21973,10.22749,10.22749,0,0,1-3.91992,3.83984A11.38283,11.38283,0,0,1,294.29971,87.84909Zm0-3.36035a7.27,7.27,0,0,0,3.66016-.91992,6.4946,6.4946,0,0,0,2.54-2.62012,8.14767,8.14767,0,0,0,.91992-3.93945,8.00564,8.00564,0,0,0-.91992-3.94043,6.57229,6.57229,0,0,0-2.54-2.58008,7.28008,7.28008,0,0,0-3.66016-.91992,7.16987,7.16987,0,0,0-3.63965.91992,6.90122,6.90122,0,0,0-2.56054,2.58008,7.73963,7.73963,0,0,0-.96,3.94043,7.87627,7.87627,0,0,0,.96,3.93945,6.81111,6.81111,0,0,0,2.56054,2.62012A7.16,7.16,0,0,0,294.29971,84.48874Z"></path> <path class="cls-1" d="M310.86807,87.60886V66.40866h9.83984a10.49862,10.49862,0,0,1,5.86036,1.41993,4.55024,4.55024,0,0,1,2.13964,4.0205,4.62376,4.62376,0,0,1-2.01953,4.01954,9.10028,9.10028,0,0,1-5.33984,1.41992l.59961-1.04q3.7998,0,5.64062,1.40039a4.85908,4.85908,0,0,1,1.83985,4.12012,5.06282,5.06282,0,0,1-2.06055,4.2998q-2.05957,1.541-6.2998,1.54Zm3.76074-12.08008h5.75977a5.68849,5.68849,0,0,0,3.33984-.82031,2.6684,2.6684,0,0,0,1.13965-2.29981,2.56016,2.56016,0,0,0-1.13965-2.28027,6.04736,6.04736,0,0,0-3.33984-.75976h-5.75977Zm0,9.12012H320.788a6.9694,6.9694,0,0,0,3.60059-.74024,2.58476,2.58476,0,0,0,1.20019-2.37988,2.80811,2.80811,0,0,0-1.10058-2.46,6.06435,6.06435,0,0,0-3.46-.78027h-6.39942Z"></path> <path class="cls-1" d="M344.85635,73.60886q4.03857.041,6.13965,1.83984a6.32659,6.32659,0,0,1,2.09961,5.08008,6.42254,6.42254,0,0,1-2.29981,5.29981q-2.2998,1.86034-6.58007,1.82031l-8.91993-.04V66.40866h3.83985v7.16016ZM343.93643,84.729a6.02994,6.02994,0,0,0,3.91992-1.04,3.83993,3.83993,0,0,0,1.35938-3.2002,3.48462,3.48462,0,0,0-1.33985-3.04,6.93576,6.93576,0,0,0-3.93945-1l-4.80078-.08007v8.32031Zm12.31934,2.87988V66.40866h3.83984v21.2002Z"></path> <path class="cls-1" d="M376.996,87.84909a12.34432,12.34432,0,0,1-5.98047-1.40039,10.08038,10.08038,0,0,1-4-3.83984,10.9287,10.9287,0,0,1-1.41992-5.59961,11.1813,11.1813,0,0,1,1.37988-5.60059,9.95921,9.95921,0,0,1,3.80078-3.81933,10.81138,10.81138,0,0,1,5.46-1.38086,10.70243,10.70243,0,0,1,5.43946,1.36035,9.62991,9.62991,0,0,1,3.70019,3.82031,11.81158,11.81158,0,0,1,1.33985,5.73926c0,.16016-.00684.34766-.01953.56055q-.02052.32081-.06055.59961h-18.04V75.52878h16.04l-1.55957.96a7.13594,7.13594,0,0,0-.83985-3.63965,6.42774,6.42774,0,0,0-2.41992-2.5,7.52881,7.52881,0,0,0-7.14062,0,6.331,6.331,0,0,0-2.43946,2.51954,7.62754,7.62754,0,0,0-.88085,3.70019v.63965a7.29272,7.29272,0,0,0,.98046,3.78027,6.7234,6.7234,0,0,0,2.74024,2.58008,8.57984,8.57984,0,0,0,4.04.91992,8.83172,8.83172,0,0,0,3.41992-.63965,7.50164,7.50164,0,0,0,2.70019-1.91992l2.11915,2.47949a9.29167,9.29167,0,0,1-3.57911,2.56055A12.46181,12.46181,0,0,1,376.996,87.84909Z"></path> <path class="cls-1" d="M404.63467,87.60886V66.40866H424.2753v21.2002h-3.84082V68.80906l.9209.96H407.55459l.91993-.96v18.7998Z"></path> <path class="cls-1" d="M431.36612,95.36863v-28.96h3.68066v5.71973l-.24023,4.9209.39941,4.91992V95.36863Zm11.24023-7.51954a9.69045,9.69045,0,0,1-4.82031-1.2207,8.85074,8.85074,0,0,1-3.47949-3.61914,12.48418,12.48418,0,0,1-1.29981-6,12.81683,12.81683,0,0,1,1.25977-6,8.47544,8.47544,0,0,1,3.43945-3.60059,9.99308,9.99308,0,0,1,4.90039-1.20019,11.0087,11.0087,0,0,1,5.52051,1.36035,10.05154,10.05154,0,0,1,3.7998,3.78027,12.18588,12.18588,0,0,1,0,11.33985,10.00007,10.00007,0,0,1-3.7998,3.7998A10.99856,10.99856,0,0,1,442.60635,87.84909Zm-.32031-3.36035a7.27,7.27,0,0,0,3.66016-.91992,6.632,6.632,0,0,0,2.56054-2.62012,8.01385,8.01385,0,0,0,.93946-3.93945,7.87444,7.87444,0,0,0-.93946-3.94043,6.71533,6.71533,0,0,0-2.56054-2.58008,7.28008,7.28008,0,0,0-3.66016-.91992,7.20251,7.20251,0,0,0-3.62012.91992,6.7129,6.7129,0,0,0-2.55957,2.58008,7.86454,7.86454,0,0,0-.94043,3.94043,8.00368,8.00368,0,0,0,.94043,3.93945,6.62973,6.62973,0,0,0,2.55957,2.62012A7.19247,7.19247,0,0,0,442.286,84.48874Z"></path> <path class="cls-1" d="M468.29776,87.84909a11.34791,11.34791,0,0,1-5.67969-1.40039,10.36461,10.36461,0,0,1-3.91992-3.85937,11.56828,11.56828,0,0,1,0-11.18067,10.26833,10.26833,0,0,1,3.91992-3.81933,12.331,12.331,0,0,1,11.33984,0,10.13383,10.13383,0,0,1,3.91993,3.7998,11.79174,11.79174,0,0,1,0,11.21973,10.22745,10.22745,0,0,1-3.91993,3.83984A11.38282,11.38282,0,0,1,468.29776,87.84909Zm0-3.36035a7.27,7.27,0,0,0,3.66015-.91992,6.4946,6.4946,0,0,0,2.54-2.62012,8.14767,8.14767,0,0,0,.91993-3.93945,8.00565,8.00565,0,0,0-.91993-3.94043,6.57229,6.57229,0,0,0-2.54-2.58008,7.28,7.28,0,0,0-3.66015-.91992,7.16985,7.16985,0,0,0-3.63965.91992,6.90131,6.90131,0,0,0-2.56055,2.58008,7.73963,7.73963,0,0,0-.96,3.94043,7.87627,7.87627,0,0,0,.96,3.93945,6.8112,6.8112,0,0,0,2.56055,2.62012A7.16,7.16,0,0,0,468.29776,84.48874Z"></path> <path class="cls-1" d="M481.47452,92.52878V84.24851h24.96v8.28027h-3.60059V87.60886H485.11416v4.91992Zm17.87988-6.71972V69.769h-9.2002l-.20019,4.08007q-.08056,2.001-.25977,3.85938a24.46885,24.46885,0,0,1-.55957,3.41992,7.30962,7.30962,0,0,1-1.10058,2.56055,3.017,3.017,0,0,1-1.91993,1.24023l-3.7998-.68066a2.42642,2.42642,0,0,0,2-.81934,5.94806,5.94806,0,0,0,1.17969-2.37988,21.26508,21.26508,0,0,0,.62011-3.46q.19923-1.94093.32032-4.02051l.31933-7.16016h16.44043v19.4004Z"></path> <path class="cls-1" d="M514.161,95.60886a8.96852,8.96852,0,0,1-2.96-.5,6.98606,6.98606,0,0,1-2.47949-1.46l1.63964-2.87988a5.79758,5.79758,0,0,0,1.75977,1.16015,5.27251,5.27251,0,0,0,2.04.39942,3.64956,3.64956,0,0,0,2.32031-.71973,6.54156,6.54156,0,0,0,1.71973-2.55957l1.32031-2.9209.39941-.47949,8.32032-19.24024h3.75976L521.72159,89.729a12.3452,12.3452,0,0,1-2.06055,3.51953,6.65409,6.65409,0,0,1-2.5,1.82031A8.051,8.051,0,0,1,514.161,95.60886Zm5.04-7.32031-9.67969-21.87989h4l8.24024,18.87989Z"></path> <path class="cls-1" d="M536.10538,87.60886V66.40866h3.83984v21.2002Zm2.68066-8.96V75.36863h7V78.6489Zm7.96-1.2002-3.56055-.47949,8.12012-10.56055h4.12012Zm4.71973,10.16016-8.2002-10.32031,3.16016-1.91992,9.55957,12.24023Z"></path> <path class="cls-1" d="M565.9169,87.60886V68.769l.96,1h-8.71973V66.40866h19.35938V69.769h-8.67969l.91992-1V87.60886Z"></path> <path class="cls-1" d="M591.18057,73.60886q4.03857.041,6.13965,1.83984a6.32659,6.32659,0,0,1,2.09961,5.08008A6.42254,6.42254,0,0,1,597.12,85.82859q-2.2998,1.86034-6.58007,1.82031l-8.91993-.04V66.40866h3.83985v7.16016ZM590.26065,84.729a6.03,6.03,0,0,0,3.91992-1.04,3.83993,3.83993,0,0,0,1.35938-3.2002,3.48462,3.48462,0,0,0-1.33985-3.04,6.93576,6.93576,0,0,0-3.93945-1l-4.80078-.08007v8.32031ZM602.58,87.60886V66.40866h3.83985v21.2002Z"></path> <g id="black_line" data-name="black line"> <circle class="cls-2" cx="57.93645" cy="66.55674" r="12.83022"></circle> <path class="cls-1" d="M38.49064,66.55674,28.66751,83.59687h19.4458l-9.62267,16.63919H0L19.24532,66.95769Zm38.69113,0,9.82314,17.04013H67.5591l9.62267,16.63919h38.49064L96.42709,66.95769ZM47.91284,50.118,57.93645,33.0779l9.62267,16.83966,9.62267-16.43871L57.93645,0,38.69113,33.27837ZM137.87081,0h-2.20519V100.23606h2.20519Z"></path> </g> </g> </g> </svg> 